<svg role="img" viewBox="0 0 24 24" xmlns="http://www.w3.org/2000/svg"><title>Disney Plus icon</title><path d="M10.894531 14.316406c.011719.003906.019531.003906.027344.003906.214844.027344.429687.066407.589844.140626.152343.066406.238281.148437.320312.300781.121094.230469.128907.546875.019531.785156-.082031.179687-.265624.335937-.433593.414063-.171875.085937-.339844.121093-.539063.144531-.339844.039062-.707031-.03125-1.015625-.183594-.183593-.085937-.402343-.238281-.515625-.433594-.082031-.144531-.082031-.332031.019532-.46875.15625-.222656.496093-.269531.753906-.257812.195312.007812.546875.066406.734375.136719.050781.015624.246093.09375.273437.125.023438.023437.035156.054687.027344.089843-.042969.128907-.355469.195313-.449219.210938-.246093.035156-.371093-.058594-.648437-.164063-.070313-.027344-.160156-.058594-.230469-.0625-.125-.011718-.273437.023438-.304687.160156-.011719.070313.070312.136719.136718.164063.152344.066406.269532.085937.417969.089844.429687.007812.917969-.066407 1.269531-.316407.046875-.03125.09375-.082031.09375-.148437.003906-.132813-.222656-.210937-.222656-.210937-.242188-.097657-.679688-.148438-.90625-.164063-.238281-.023437-.613281-.050781-.703125-.066406-.09375-.011719-.191406-.03125-.273437-.066407-.078126-.035156-.15625-.117187-.179688-.210937-.042969-.164063.011719-.359375.101562-.492187.238282-.339844.789063-.46875 1.203126-.519532.398437-.050781 1.050781-.050781 1.445312.160156.0625.03125.089844.0625.078125.125-.027344.125-.117187.203126-.226563.234376-.117187.039062-.359374.054687-.464843.058593-.472657.027344-1.050781.011719-1.5.136719-.039063.007812-.09375.027344-.117188.046875-.070312.074219.128907.097656.171875.105469.015625.003906.015625.003906.027344.003906l1.019531.128906m-2.824219-2.113281s.078126-.117187.140626-.207031c.117187-.160156.335937-.378906.492187-.519532.046875-.042968.109375-.089843.109375-.089843s-.089844.007812-.140625.019531c-.121094.023438-.300781.140625-.390625.21875-.144531.125-.308594.332031-.234375.515625.011719.027344.023437.0625.023437.0625m.820313.21875c.234375-.019531.453125-.085937.652344-.191406.199219-.113281.492187-.328125.460937-.582031-.011718-.078126-.0625-.144532-.132812-.171876-.089844-.039062-.136719-.035156-.246094.003907-.082031.023437-.125.035156-.199219.082031-.230469.132812-.550781.417969-.726562.644531-.042969.050781-.078125.113281-.113281.152344-.015626.03125-.035157.046875-.03125.058594.003906.007812.242187.007812.335937.003906m-.59375.4375c-.023437.027344-.050781.082031-.074219.128906-.015625.023438-.042968.058594-.058594.066407-.058593.046874-.109374.046874-.167968-.003907-.078125-.070312-.128906-.183593-.128906-.292969-.007813-.046874.007812-.101562-.007813-.140624-.011719-.0625-.078125-.132813-.121094-.199219-.042969-.074219-.074219-.210938-.078125-.296875-.015625-.265625.125-.515625.308594-.707032.183594-.195312.425781-.359374.6875-.46875.25-.109374.617188-.171874.886719-.078124.089843.03125.210937.105468.273437.179687.011719.019531.023438.035156.035156.042969.015626.011718.042969.011718.070313.015625.085937.011719.210937.078125.265625.125.101562.089843.15625.175781.179688.296875.054687.246094-.085938.519531-.25.683594-.277344.28125-.554688.484374-.910157.625-.15625.058593-.398437.117187-.578125.101562-.054687-.003906-.113281-.019531-.164062-.023438-.027344-.003906-.125-.027343-.136719-.039062-.007813-.011719-.027344-.023438-.03125-.015625m.320313.546875c.011718.003906.027343.007812.039062.015625.128906.046875.175781.164063.207031.289063.070313.296874.105469.945312.113281 1.199218.007813.191406.015626.378906.023438.566406.007812.160157.019531.371094-.015625.527344-.011719.050782-.046875.117188-.101563.148438-.0625.039062-.191406.042968-.265624.027344-.183594-.035157-.246094-.152344-.269532-.335938-.058594-.429688-.03125-1.273438.003906-1.632812.015626-.117188.058594-.492188.117188-.648438.023438-.066406.070312-.175781.148438-.15625m-5.550782.710938s-.273437.019531-.460937.042968c-.238281.027344-.683594.105469-.941407.191406-.074218.03125-.234374.09375-.25.175782-.011718.078125.039063.144531.09375.214844.035157.039062.222657.21875.273438.261718.21875.183594.660156.464844.988281.601563.113281.046875.296875.113281.296875.113281s-.015625-.53125-.015625-1.050781c.011719-.277344.015625-.550781.015625-.550781m4.976563.210937c.015625.140625-.023438.414063-.027344.445313-.015625.082031-.070313.273437-.085937.292968-.050782.117188-.097657.210938-.148438.304688-.089844.160156-.300781.417968-.425781.523437-.46875.402344-1.191407.632813-1.816407.714844-.421874.050781-.902343.039063-1.347656-.039063-.15625-.027343-.378906-.078124-.378906-.078124s0 .085937-.011719.152343c-.003906.027344-.027343.109375-.035156.132813-.035156.066406-.085937.101562-.164063.117187-.09375.019531-.195312.023438-.277343-.015625-.140625-.058594-.191407-.191406-.222657-.347656-.015624-.121094-.039062-.335938-.039062-.335938s-.109375-.050781-.195312-.09375c-.269532-.136718-.527344-.296874-.753907-.464843-.058593-.046875-.332031-.269531-.386719-.328125-.164062-.160156-.320312-.3125-.433593-.515625-.089844-.160157-.117188-.292969-.046875-.464844.09375-.234375.425781-.40625.65625-.503906.167968-.074219.691406-.246094.90625-.277344.101562-.015625.261718-.042969.269531-.050781.007813-.003906.011719-.003906.011719-.011719.003906-.007813.011718-.238281.011718-.320313-.003906-.085937.0625-.628906.082032-.742187.007812-.0625.054687-.304687.105468-.367187.035157-.039063.085938-.035157.132813-.011719.25.152343.324219.6875.34375.960937.011719.164063.015625.417969.015625.417969s.289062-.011719.460938-.007813c.167968.007813.355468.035157.535156.0625.222656.039063.664062.132813.917968.261719.210938.109375.402344.28125.464844.46875.054688.175781.050782.292969-.039062.449219-.101563.175781-.289063.3125-.480469.320312-.058594.003907-.273437-.027343-.339844-.074218-.027343-.023438-.023437-.058594-.003906-.082032.007813-.007812.109375-.058593.167969-.09375.027344-.015624.058594-.03125.074218-.054687.054688-.042969.09375-.089844.089844-.148437-.007812-.070313-.082031-.117188-.160156-.148438-.34375-.132812-1.035156-.25-1.367188-.269531-.132812-.011719-.320312-.015625-.320312-.015625l.039062 1.839844s.15625.027343.273438.046874c.070312.007813.359375.035157.4375.035157.597656.019531 1.257812-.035157 1.800781-.292969.238281-.113281.460938-.253906.628907-.445312.21875-.253907.332031-.597657.304687-.957032-.03125-.394531-.308594-.859375-.53125-1.144531-.578125-.75-1.578125-1.363281-2.460937-1.730469-.894532-.371094-1.78125-.582031-2.734376-.617187-.246093-.011719-.78125.003906-1.050781.078125-.039062.015625-.074219.023437-.113281.035156-.027344.007812-.070312.027344-.085938.035156-.007812.003906-.011718.015625-.011718.015625s.019531.007813.03125.019531c.027344.011719.152344.015626.210937.03125.058594.007813.117188.042969.136719.078126.023438.039062.023438.070312-.003906.105468-.0625.074219-.292969.058594-.394532.046875-.109374-.019531-.2382808-.046875-.2617182-.140625-.0273438-.109375.0234374-.214844.078125-.316406.1132812-.195312.2734372-.292969.5078122-.359375.332031-.089844.753907-.15625 1.0625-.167969.714844-.027344 1.382813.097656 2.074219.308594.390625.121094.90625.320312 1.289062.5.269532.132812.695313.371094.9375.53125.074219.050781.519532.375.585938.429688.144531.117187.332031.289062.46875.421874.261719.265626.589844.664063.75.976563.035156.074219.0625.148437.117188.238281.015624.035156.085937.210938.101562.261719.015625.054687.027344.128906.03125.132813.015625.027343.046875.1875.042969.242187m8.941406-.40625c-.335937.074219-1.210937.121094-1.210937.121094l-.113282.347656s.4375-.039063.753906-.003906c0 0 .105469-.015625.117188.117187.007812.121094-.007812.246094-.007812.246094s-.007813.082031-.117188.101562c-.121094.015626-.941406.050782-.941406.050782l-.136719.449218s-.050781.101563.0625.074219c.101563-.027343.964844-.1875 1.078125-.164062.121094.027343.25.1875.214844.339843-.046875.179688-.910156.730469-1.429688.6875 0 0-.277344.019532-.511718-.351562-.214844-.355469.078124-1.027344.078124-1.027344s-.132812-.3125-.035156-.421875c0 0 .058594-.050781.230469-.066406l.210937-.433594s-.242187.019531-.386718-.160156c-.128906-.167969-.144532-.242187-.042969-.289063.109375-.054687 1.113281-.242187 1.796875-.21875 0 0 .238281-.023437.445312.390626.007813.003906.113282.171874-.054687.210937m-2.59375 1.679687c-.089844.203126-.324219.429688-.613281.289063-.285156-.136719-.742188-1.070313-.742188-1.070313s-.171875-.34375-.207031-.335937c0 0-.035156-.066406-.058594.3125-.023437.382813.003907 1.117187-.144531 1.234375-.148438.117188-.320312.070312-.410156-.066406-.078125-.136719-.117188-.449219-.070313-1.011719.050781-.558594.183594-1.15625.347657-1.339844.164062-.183593.300781-.050781.351562-.003906 0 0 .226562.199219.585938.789063l.066406.113281s.332031.558593.363281.558593c0 0 .03125.027344.054687.007813.035157-.007813.023438-.1875.023438-.1875s-.070312-.609375-.371094-1.640625c0 0-.046875-.128906-.015625-.246094.035157-.121094.15625-.066406.15625-.066406s.46875.238281.699219 1.003906c.226562.757813.074219 1.453125-.015625 1.660156m5.0625-.460937c-.214844.375-.820313 1.15625-1.621094.96875-.269531.644531-.488281 1.296875-.621093 2.269531 0 0-.027344.1875-.179688.121094-.15625-.054688-.414062-.3125-.464844-.667969-.058594-.46875.152344-1.265625.582032-2.179687-.128907-.207032-.210938-.492188-.136719-.910156 0 0 .105469-.769532.875-1.457032 0 0 .089843-.082031.144531-.058594.0625.023438.035156.273438-.011719.394532-.046875.121094-.390625.71875-.390625.71875s-.214844.398437-.152344.714844c.402344-.621094 1.320313-1.875 1.890626-1.480469.195312.136719.277343.4375.277343.753906 0 .292969-.066406.59375-.191406.8125m-.164063-.984375s-.03125-.25-.273437.023438c-.210937.230468-.578125.660156-.878906 1.246093.316406-.035156.621093-.207031.714843-.292969.140626-.132812.488282-.492187.4375-.976562m4.589844-.050781H22.40625c-.027344-.503907-.089844-.988281-.183594-1.492188-.007812-.050781-.054687-.089843-.105468-.089843h-.339844c-.027344 0-.054688.015624-.074219.039062-.019531.023438-.027344.050781-.023437.085938.09375.480468.160156.964843.1875 1.460937h-1.414063c-.066406 0-.125.050781-.125.121094v.308593c0 .066407.054687.125.125.125h1.4375c0 .074219.003906.144532.003906.203126 0 .441406-.019531.808593-.058593 1.214843-.007813.035157.007812.0625.027343.085938.023438.023437.050781.035156.078125.035156h.316406c.058594 0 .109376-.046875.117188-.105469.039062-.414062.058594-.777344.058594-1.234375 0-.058593 0-.128906-.003906-.207031h1.453124c.066407 0 .121094-.050781.121094-.121094v-.308594c-.007812-.070312-.058594-.121093-.125-.121093M4.195312 10c-.023437.03125-.027343.070312-.015624.105469.015624.039062.042968.0625.078124.074219l.261719.089843c.019531.003907.03125.011719.046875.011719.046875 0 .09375-.023438.121094-.066406.863281-1.269532 2.035156-2.332032 3.382812-3.058594 1.394532-.753906 2.972657-1.152344 4.566407-1.152344 1.925781 0 3.785156.566406 5.371093 1.640625 1.554688 1.046875 2.753907 2.507813 3.484376 4.230469.023437.050781.070312.082031.125.082031h.316406c.035156 0 .070312-.019531.089844-.046875.023437-.03125.023437-.070312.007812-.101562-.75-1.847656-2.019531-3.421875-3.671875-4.550782-1.6875-1.15625-3.667969-1.769531-5.722656-1.769531C9.234375 5.480469 6.078125 7.171875 4.195312 10"/></svg>